<svg width="128" height="128" viewBox="0 0 128 128" fill="none" xmlns="http://www.w3.org/2000/svg">
<path d="M34.9454 96.6872H38.5773V49.4724H34.9454C33.019 49.4724 31.1714 50.2377 29.8092 51.6C28.4469 52.9622 27.6816 54.8098 27.6816 56.7362V89.4234C27.6816 91.3498 28.4469 93.1974 29.8092 94.5596C31.1714 95.9219 33.019 96.6872 34.9454 96.6872ZM93.0559 49.4724H67.6326L71.7076 37.2402C72.0712 36.1485 72.1702 34.986 71.9966 33.8486C71.8229 32.7111 71.3815 31.6311 70.7087 30.6977C70.0359 29.7642 69.151 29.0039 68.1268 28.4795C67.1026 27.955 65.9685 27.6813 64.8178 27.681H64.0007L45.8412 47.4313V96.6872H85.7921L100 65.4673L100.32 64V56.7362C100.32 54.8098 99.5544 52.9622 98.1922 51.6C96.8299 50.2377 94.9824 49.4724 93.0559 49.4724Z" fill="#7FA101"/>
<circle cx="64" cy="64" r="59" stroke="#7FA101" stroke-width="10"/>
</svg>
