<svg width="126" height="126" viewBox="0 0 126 126" fill="none" xmlns="http://www.w3.org/2000/svg">
<path d="M63 0C28.2061 0 0 28.2061 0 63C0 97.7938 28.2061 126 63 126C97.7937 126 126 97.7938 126 63C126 28.2061 97.7937 0 63 0ZM63 13.689C90.2337 13.689 112.303 35.7731 112.303 63C112.303 90.227 90.2337 112.303 63 112.303C35.7661 112.303 13.6966 90.227 13.6966 63C13.6967 35.7731 35.7661 13.689 63 13.689ZM87.1402 33.0842L50.6261 69.6061L38.7828 57.7628L27.1626 69.3754L39.0058 81.2187L50.7029 92.9158L62.3156 81.2955L98.8373 44.7813L87.1402 33.0842V33.0842Z" fill="#7FA101"/>
</svg>
