<svg width="126" height="126" viewBox="0 0 126 126" fill="none" xmlns="http://www.w3.org/2000/svg">
<path d="M99.2472 7.87501H68.9949C68.0544 7.87432 67.152 8.24592 66.4847 8.9086L6.0047 69.3738C4.68075 70.7043 3.9375 72.5049 3.9375 74.3818C3.9375 76.2588 4.68075 78.0594 6.0047 79.3899L34.7977 108.183C36.1285 109.507 37.9295 110.25 39.8069 110.25C41.6843 110.25 43.4853 109.507 44.8161 108.183L105.279 47.7422C105.942 47.0749 106.313 46.1725 106.313 45.232V14.9625C106.317 14.0324 106.138 13.1105 105.784 12.25C105.431 11.3895 104.911 10.6074 104.255 9.9486C103.598 9.28985 102.817 8.7675 101.958 8.41162C101.099 8.05575 100.177 7.87338 99.2472 7.87501V7.87501Z" stroke="#7FA101" stroke-width="7.875" stroke-linecap="round" stroke-linejoin="round"/>
<path d="M86.625 35.4375C85.0675 35.4375 83.5449 34.9756 82.2499 34.1103C80.9548 33.245 79.9455 32.0151 79.3495 30.5761C78.7534 29.1372 78.5975 27.5538 78.9013 26.0262C79.2052 24.4986 79.9552 23.0954 81.0565 21.994C82.1579 20.8927 83.5611 20.1427 85.0887 19.8388C86.6163 19.535 88.1997 19.6909 89.6386 20.287C91.0776 20.883 92.3075 21.8924 93.1728 23.1874C94.0381 24.4824 94.5 26.005 94.5 27.5625C94.5 29.6511 93.6703 31.6541 92.1935 33.131C90.7166 34.6078 88.7136 35.4375 86.625 35.4375Z" fill="#7FA101"/>
<path d="M56.6016 118.125L121.078 53.6484C121.399 53.3251 121.651 52.9406 121.82 52.5179C121.989 52.0951 122.072 51.6427 122.063 51.1875V19.6875" stroke="#7FA101" stroke-width="7.875" stroke-linecap="round" stroke-linejoin="round"/>
</svg>
