<svg width="128" height="34" viewBox="0 0 128 34" fill="none" xmlns="http://www.w3.org/2000/svg">
<path d="M0 16.6562C0 25.8548 7.45768 33.3125 16.6562 33.3125C25.8548 33.3125 33.3125 25.8548 33.3125 16.6562C33.3125 7.45768 25.8548 0 16.6562 0C7.45768 0 0 7.45768 0 16.6562ZM17.9375 10.2428L12.8461 15.375H24.8242V17.9375H12.8461L17.9375 23.0697L16.1197 24.8747L7.96457 16.6562L16.1197 8.43783L17.9375 10.2428Z" fill="#7FA101"/>
<path d="M67.3765 8.35625V25.1562H64.9765V17.6682H55.3285V25.1562H52.9285V8.35625H55.3285V15.5802H64.9765V8.35625H67.3765ZM76.768 12.3162C78.528 12.3162 79.872 12.7482 80.8 13.6122C81.744 14.4762 82.216 15.7642 82.216 17.4762V25.1562H80.032V23.4762C79.648 24.0683 79.096 24.5243 78.376 24.8442C77.672 25.1482 76.832 25.3003 75.856 25.3003C74.432 25.3003 73.288 24.9562 72.424 24.2682C71.576 23.5802 71.152 22.6762 71.152 21.5562C71.152 20.4362 71.56 19.5402 72.376 18.8682C73.192 18.1802 74.488 17.8362 76.264 17.8362H79.912V17.3802C79.912 16.3882 79.624 15.6282 79.048 15.1002C78.472 14.5722 77.624 14.3082 76.504 14.3082C75.752 14.3082 75.016 14.4362 74.296 14.6922C73.576 14.9322 72.968 15.2602 72.472 15.6762L71.512 13.9482C72.168 13.4202 72.952 13.0202 73.864 12.7482C74.776 12.4602 75.744 12.3162 76.768 12.3162ZM76.24 23.5242C77.12 23.5242 77.88 23.3322 78.52 22.9482C79.16 22.5482 79.624 21.9882 79.912 21.2682V19.4922H76.36C74.408 19.4922 73.432 20.1482 73.432 21.4602C73.432 22.1002 73.68 22.6042 74.176 22.9722C74.672 23.3402 75.36 23.5242 76.24 23.5242ZM93.0419 18.5322C93.8899 18.7562 94.5459 19.1162 95.0099 19.6122C95.4739 20.1082 95.7059 20.7242 95.7059 21.4602C95.7059 22.2122 95.4499 22.8842 94.9379 23.4762C94.4259 24.0522 93.7139 24.5082 92.8019 24.8442C91.9059 25.1643 90.8979 25.3243 89.7779 25.3243C88.8339 25.3243 87.9059 25.2043 86.9939 24.9642C86.0979 24.7082 85.2979 24.3482 84.5939 23.8842L85.2899 22.1322C85.8979 22.5162 86.5939 22.8202 87.3779 23.0442C88.1619 23.2522 88.9539 23.3562 89.7539 23.3562C90.8419 23.3562 91.7059 23.1722 92.3459 22.8042C93.0019 22.4202 93.3299 21.9082 93.3299 21.2682C93.3299 20.6762 93.0659 20.2202 92.5379 19.9002C92.0259 19.5802 91.2979 19.4202 90.3539 19.4202H88.0259V17.7642H90.1859C91.0499 17.7642 91.7299 17.6122 92.2259 17.3082C92.7219 17.0042 92.9699 16.5882 92.9699 16.0602C92.9699 15.4842 92.6739 15.0362 92.0819 14.7162C91.5059 14.3962 90.7219 14.2362 89.7299 14.2362C88.4659 14.2362 87.1299 14.5642 85.7219 15.2202L85.0979 13.4442C86.6499 12.6602 88.2739 12.2682 89.9699 12.2682C90.9939 12.2682 91.9139 12.4122 92.7299 12.7002C93.5459 12.9882 94.1859 13.3962 94.6499 13.9242C95.1139 14.4522 95.3459 15.0522 95.3459 15.7242C95.3459 16.3482 95.1379 16.9082 94.7219 17.4042C94.3059 17.9002 93.7459 18.2762 93.0419 18.5322ZM103.745 12.3162C105.505 12.3162 106.849 12.7482 107.777 13.6122C108.721 14.4762 109.193 15.7642 109.193 17.4762V25.1562H107.009V23.4762C106.625 24.0683 106.073 24.5243 105.353 24.8442C104.649 25.1482 103.809 25.3003 102.833 25.3003C101.409 25.3003 100.265 24.9562 99.4006 24.2682C98.5526 23.5802 98.1286 22.6762 98.1286 21.5562C98.1286 20.4362 98.5366 19.5402 99.3526 18.8682C100.169 18.1802 101.465 17.8362 103.241 17.8362H106.889V17.3802C106.889 16.3882 106.601 15.6282 106.025 15.1002C105.449 14.5722 104.601 14.3082 103.481 14.3082C102.729 14.3082 101.993 14.4362 101.273 14.6922C100.553 14.9322 99.9446 15.2602 99.4486 15.6762L98.4886 13.9482C99.1446 13.4202 99.9286 13.0202 100.841 12.7482C101.753 12.4602 102.721 12.3162 103.745 12.3162ZM103.217 23.5242C104.097 23.5242 104.857 23.3322 105.497 22.9482C106.137 22.5482 106.601 21.9882 106.889 21.2682V19.4922H103.337C101.385 19.4922 100.409 20.1482 100.409 21.4602C100.409 22.1002 100.657 22.6042 101.153 22.9722C101.649 23.3402 102.337 23.5242 103.217 23.5242ZM126.277 23.1402V28.1083H124.117V25.1562H113.485V28.1083H111.301V23.1402H111.973C112.789 23.0922 113.349 22.5162 113.653 21.4122C113.957 20.3082 114.165 18.7482 114.277 16.7322L114.469 12.4362H124.333V23.1402H126.277ZM116.389 16.9002C116.325 18.5002 116.189 19.8282 115.981 20.8842C115.789 21.9242 115.429 22.6762 114.901 23.1402H122.029V14.4522H116.509L116.389 16.9002Z" fill="#7FA101"/>
</svg>
